<svg width="20" height="20" viewBox="0 0 20 20" fill="none" xmlns="http://www.w3.org/2000/svg">
<g clip-path="url(#clip0_7379_14177)">
<mask id="mask0_7379_14177" style="mask-type:luminance" maskUnits="userSpaceOnUse" x="1" y="1" width="17" height="18">
<path d="M17.9311 9.99998C17.9311 5.42935 14.2259 1.72412 9.65526 1.72412C5.08462 1.72412 1.37939 5.42935 1.37939 9.99998C1.37939 14.5706 5.08462 18.2758 9.65526 18.2758C14.2259 18.2758 17.9311 14.5706 17.9311 9.99998Z" fill="white"/>
</mask>
<g mask="url(#mask0_7379_14177)">
<path d="M17.9311 9.99998C17.9311 14.5706 14.2259 18.2758 9.65526 18.2758C5.08465 18.2758 1.37939 14.5706 1.37939 9.99998C1.37939 10.0019 9.65526 1.72412 9.65526 1.72412C14.2259 1.72412 17.9311 5.42938 17.9311 9.99998Z" fill="#0052B4"/>
<path d="M9.63306 9.99992H9.65519C9.65519 9.9924 9.65519 9.98523 9.65519 9.97778C9.64782 9.98516 9.64044 9.99254 9.63306 9.99992Z" fill="#F0F0F0"/>
<path d="M9.65526 6.04196C9.65526 4.58576 9.65526 3.63155 9.65526 1.72412H9.65388C5.08388 1.72487 1.37939 5.42977 1.37939 9.99998H5.69723V7.56854L8.12864 9.99998H9.63312C9.64057 9.9926 9.64795 9.98523 9.65526 9.97778C9.65526 9.42026 9.65526 8.92274 9.65526 8.47343L7.22381 6.04196H9.65526Z" fill="#F0F0F0"/>
<path d="M5.56644 2.80347C4.27207 3.5405 3.19602 4.61656 2.45898 5.91092V9.99989H4.61792V4.96243L9.65538 4.9624C9.65538 4.28148 9.65538 3.6328 9.65538 2.80347H5.56644Z" fill="#D80027"/>
<path d="M9.65524 8.98229L6.71497 6.04201H5.69727L9.65524 9.99995C9.65524 9.99995 9.65524 9.29829 9.65524 8.98229Z" fill="#D80027"/>
<path d="M6.37075 11.4392L6.82495 12.3889L7.85062 12.1519L7.39131 13.0991L8.21614 13.7532L7.18917 13.9847L7.192 15.0374L6.37075 14.3788L5.5495 15.0374L5.55238 13.9847L4.52539 13.7532L5.35023 13.0991L4.89086 12.1519L5.91658 12.3889L6.37075 11.4392Z" fill="#F0F0F0"/>
<path d="M13.7703 13.2383L13.9974 13.7131L14.5103 13.5946L14.2806 14.0682L14.693 14.3952L14.1795 14.511L14.181 15.0374L13.7703 14.7081L13.3597 15.0374L13.3611 14.511L12.8477 14.3952L13.2601 14.0682L13.0304 13.5946L13.5432 13.7131L13.7703 13.2383Z" fill="#F0F0F0"/>
<path d="M11.6578 8.20093L11.8849 8.67582L12.3977 8.5572L12.1681 9.03086L12.5805 9.35789L12.067 9.47362L12.0684 9.99996L11.6578 9.67065L11.2472 9.99996L11.2486 9.47362L10.7351 9.35789L11.1475 9.03086L10.9179 8.5572L11.4307 8.67582L11.6578 8.20093Z" fill="#F0F0F0"/>
<path d="M13.7703 5.32227L13.9974 5.79716L14.5103 5.67861L14.2806 6.15225L14.693 6.47927L14.1795 6.59503L14.181 7.12136L13.7703 6.79207L13.3597 7.12136L13.3611 6.59503L12.8477 6.47927L13.26 6.15225L13.0304 5.67861L13.5432 5.79716L13.7703 5.32227Z" fill="#F0F0F0"/>
<path d="M15.6158 7.4812L15.8428 7.9561L16.3557 7.83755L16.1261 8.31113L16.5385 8.63824L16.025 8.75396L16.0264 9.2803L15.6158 8.95099L15.2052 9.2803L15.2066 8.75396L14.6931 8.63824L15.1055 8.31113L14.8759 7.83755L15.3887 7.9561L15.6158 7.4812Z" fill="#F0F0F0"/>
<path d="M14.296 10L14.4746 10.5498H15.0527L14.585 10.8896L14.7637 11.4393L14.296 11.0995L13.8283 11.4393L14.007 10.8896L13.5393 10.5498H14.1174L14.296 10Z" fill="#F0F0F0"/>
</g>
<path d="M18.6207 9.99994C18.6207 5.04842 14.6067 1.03442 9.65521 1.03442C4.7037 1.03442 0.689697 5.04842 0.689697 9.99994C0.689697 14.9515 4.7037 18.9655 9.65521 18.9655C14.6067 18.9655 18.6207 14.9515 18.6207 9.99994Z" stroke="white" stroke-width="1.37931"/>
</g>
<defs>
<clipPath id="clip0_7379_14177">
<rect width="19.3103" height="20" fill="white"/>
</clipPath>
</defs>
</svg>
