<svg width="20" height="20" viewBox="0 0 20 20" fill="none" xmlns="http://www.w3.org/2000/svg">
<g clip-path="url(#clip0_7379_14203)">
<mask id="mask0_7379_14203" style="mask-type:luminance" maskUnits="userSpaceOnUse" x="1" y="1" width="17" height="18">
<path d="M17.9312 9.99998C17.9312 5.42935 14.226 1.72412 9.65538 1.72412C5.08475 1.72412 1.37952 5.42935 1.37952 9.99998C1.37952 14.5706 5.08475 18.2758 9.65538 18.2758C14.226 18.2758 17.9312 14.5706 17.9312 9.99998Z" fill="white"/>
</mask>
<g mask="url(#mask0_7379_14203)">
<path d="M9.65538 18.2758C14.226 18.2758 17.9312 14.5706 17.9312 9.99998C17.9312 5.42935 14.226 1.72412 9.65538 1.72412C5.08474 1.72412 1.37952 5.42935 1.37952 9.99998C1.37952 14.5706 5.08474 18.2758 9.65538 18.2758Z" fill="#6DA544"/>
<path d="M9.65539 4.96265L16.492 10.0001L9.65539 15.0376L2.81885 10.0001L9.65539 4.96265Z" fill="#FFDA44"/>
<path d="M9.65543 12.8784C11.2452 12.8784 12.534 11.5897 12.534 9.99989C12.534 8.41017 11.2452 7.12134 9.65543 7.12134C8.06563 7.12134 6.77686 8.41017 6.77686 9.99989C6.77686 11.5897 8.06563 12.8784 9.65543 12.8784Z" fill="#F0F0F0"/>
<path d="M8.21597 9.82007C7.71535 9.82007 7.23231 9.89621 6.77759 10.0375C6.79773 11.6099 8.07804 12.8786 9.65521 12.8786C10.6305 12.8786 11.4918 12.3931 12.0125 11.6512C11.1217 10.5359 9.75093 9.82007 8.21597 9.82007Z" fill="#0052B4"/>
<path d="M12.4803 10.5514C12.5149 10.3729 12.5336 10.1886 12.5336 9.99989C12.5336 8.4101 11.2449 7.12134 9.65513 7.12134C8.46885 7.12134 7.45058 7.83906 7.00989 8.86382C7.3994 8.78306 7.80272 8.74058 8.21582 8.74058C9.88775 8.74051 11.4002 9.43548 12.4803 10.5514Z" fill="#0052B4"/>
</g>
<path d="M18.6207 9.99994C18.6207 5.04842 14.6067 1.03442 9.65521 1.03442C4.7037 1.03442 0.689697 5.04842 0.689697 9.99994C0.689697 14.9515 4.7037 18.9655 9.65521 18.9655C14.6067 18.9655 18.6207 14.9515 18.6207 9.99994Z" stroke="white" stroke-width="1.37931"/>
</g>
<defs>
<clipPath id="clip0_7379_14203">
<rect width="19.3103" height="20" fill="white"/>
</clipPath>
</defs>
</svg>
