<svg width="20" height="20" viewBox="0 0 20 20" fill="none" xmlns="http://www.w3.org/2000/svg">
<g clip-path="url(#clip0_7379_14332)">
<mask id="mask0_7379_14332" style="mask-type:luminance" maskUnits="userSpaceOnUse" x="1" y="1" width="17" height="18">
<path d="M17.9312 9.99998C17.9312 5.42935 14.226 1.72412 9.65538 1.72412C5.08475 1.72412 1.37952 5.42935 1.37952 9.99998C1.37952 14.5706 5.08475 18.2758 9.65538 18.2758C14.226 18.2758 17.9312 14.5706 17.9312 9.99998Z" fill="white"/>
</mask>
<g mask="url(#mask0_7379_14332)">
<path d="M9.65538 18.2758C14.226 18.2758 17.9312 14.5706 17.9312 9.99998C17.9312 5.42935 14.226 1.72412 9.65538 1.72412C5.08474 1.72412 1.37952 5.42935 1.37952 9.99998C1.37952 14.5706 5.08474 18.2758 9.65538 18.2758Z" fill="#F0F0F0"/>
<path d="M17.9314 10.0001C17.9314 6.71903 16.022 3.88403 13.2538 2.54541V17.4547C16.022 16.1161 17.9314 13.2812 17.9314 10.0001Z" fill="#D80027"/>
<path d="M1.37964 10.0001C1.37964 13.2812 3.28907 16.1161 6.05731 17.4547V2.54541C3.28907 3.88403 1.37964 6.71903 1.37964 10.0001Z" fill="#D80027"/>
<path d="M11.0947 11.0794L12.534 10.3598L11.8143 9.99989V9.2803L10.375 9.99989L11.0947 8.56065H10.375L9.65543 7.4812L8.93577 8.56065H8.21612L8.93577 9.99989L7.49646 9.2803V9.99989L6.77686 10.3598L8.21612 11.0794L7.85632 11.799H9.29557V12.8784H10.0152V11.799H11.4545L11.0947 11.0794Z" fill="#D80027"/>
</g>
<path d="M18.6207 9.99994C18.6207 5.04842 14.6067 1.03442 9.65521 1.03442C4.7037 1.03442 0.689697 5.04842 0.689697 9.99994C0.689697 14.9515 4.7037 18.9655 9.65521 18.9655C14.6067 18.9655 18.6207 14.9515 18.6207 9.99994Z" stroke="white" stroke-width="1.37931"/>
</g>
<defs>
<clipPath id="clip0_7379_14332">
<rect width="19.3103" height="20" fill="white"/>
</clipPath>
</defs>
</svg>
