<svg width="20" height="20" viewBox="0 0 20 20" fill="none" xmlns="http://www.w3.org/2000/svg">
<g clip-path="url(#clip0_7379_14290)">
<mask id="mask0_7379_14290" style="mask-type:luminance" maskUnits="userSpaceOnUse" x="1" y="1" width="17" height="18">
<path d="M17.9309 9.99998C17.9309 5.42935 14.2256 1.72412 9.65501 1.72412C5.08438 1.72412 1.37915 5.42935 1.37915 9.99998C1.37915 14.5706 5.08438 18.2758 9.65501 18.2758C14.2256 18.2758 17.9309 14.5706 17.9309 9.99998Z" fill="white"/>
</mask>
<g mask="url(#mask0_7379_14290)">
<path d="M9.65501 18.2758C14.2256 18.2758 17.9309 14.5706 17.9309 9.99998C17.9309 5.42935 14.2256 1.72412 9.65501 1.72412C5.08438 1.72412 1.37915 5.42935 1.37915 9.99998C1.37915 14.5706 5.08438 18.2758 9.65501 18.2758Z" fill="#F0F0F0"/>
<path d="M17.9311 9.99988C17.9311 6.71879 16.0216 3.88379 13.2534 2.54517V17.4545C16.0216 16.1159 17.9311 13.2809 17.9311 9.99988Z" fill="#D80027"/>
<path d="M1.37915 9.99988C1.37915 13.2809 3.28858 16.1159 6.05683 17.4545V2.54517C3.28858 3.88379 1.37915 6.71879 1.37915 9.99988Z" fill="#6DA544"/>
<path d="M7.49585 9.99993C7.49585 11.1923 8.46247 12.1589 9.65482 12.1589C10.8472 12.1589 11.8137 11.1923 11.8137 9.99993V9.28027H7.49585V9.99993Z" fill="#6DA544"/>
<path d="M12.5337 8.56072H10.3748C10.3748 8.16327 10.0526 7.84106 9.65518 7.84106C9.25774 7.84106 8.93553 8.16327 8.93553 8.56072H6.77661C6.77661 8.95817 7.12284 9.28037 7.52022 9.28037H7.49629C7.49629 9.67782 7.81843 10 8.21587 10C8.21587 10.3975 8.53808 10.7196 8.93553 10.7196H10.3748C10.7723 10.7196 11.0945 10.3975 11.0945 10C11.4919 10 11.8141 9.67782 11.8141 9.28037H11.7902C12.1876 9.28037 12.5337 8.95817 12.5337 8.56072Z" fill="#FF9811"/>
</g>
<path d="M18.6207 9.99994C18.6207 5.04842 14.6067 1.03442 9.65521 1.03442C4.7037 1.03442 0.689697 5.04842 0.689697 9.99994C0.689697 14.9515 4.7037 18.9655 9.65521 18.9655C14.6067 18.9655 18.6207 14.9515 18.6207 9.99994Z" stroke="white" stroke-width="1.37931"/>
</g>
<defs>
<clipPath id="clip0_7379_14290">
<rect width="19.3103" height="20" fill="white"/>
</clipPath>
</defs>
</svg>
