<svg width="20" height="20" viewBox="0 0 20 20" fill="none" xmlns="http://www.w3.org/2000/svg">
<g clip-path="url(#clip0_7379_14310)">
<mask id="mask0_7379_14310" style="mask-type:luminance" maskUnits="userSpaceOnUse" x="1" y="1" width="17" height="18">
<path d="M17.9312 9.99998C17.9312 5.42935 14.226 1.72412 9.65538 1.72412C5.08475 1.72412 1.37952 5.42935 1.37952 9.99998C1.37952 14.5706 5.08475 18.2758 9.65538 18.2758C14.226 18.2758 17.9312 14.5706 17.9312 9.99998Z" fill="white"/>
</mask>
<g mask="url(#mask0_7379_14310)">
<path d="M9.65538 18.2758C14.226 18.2758 17.9312 14.5706 17.9312 9.99998C17.9312 5.42935 14.226 1.72412 9.65538 1.72412C5.08474 1.72412 1.37952 5.42935 1.37952 9.99998C1.37952 14.5706 5.08474 18.2758 9.65538 18.2758Z" fill="#F0F0F0"/>
<path d="M9.65543 1.72412V9.99998L3.80347 15.8519C5.30111 17.3495 7.37005 18.2758 9.65543 18.2758C14.226 18.2758 17.9313 14.5706 17.9313 9.99998C17.9313 5.42938 9.65543 1.72412 9.65543 1.72412Z" fill="#D80027"/>
<path d="M9.65543 1.72412C7.37005 1.72412 5.30111 2.65044 3.80347 4.14805C5.83396 6.17854 6.55477 6.89936 9.65543 9.99998H17.9313C17.9313 5.42938 14.226 1.72412 9.65543 1.72412Z" fill="#0052B4"/>
<path d="M7.04656 10L6.03589 9.52463L6.57411 8.5458L5.47658 8.75573L5.33752 7.64697L4.57303 8.46242L3.80858 7.64697L3.66947 8.75573L2.57198 8.54573L3.1102 9.52463L2.09949 10L3.1102 10.4755L2.57198 11.4543L3.66957 11.2444L3.80855 12.353L4.57303 11.5376L5.33752 12.353L5.47658 11.2444L6.57404 11.4543L6.03585 10.4755L7.04656 10Z" fill="#FFDA44"/>
<path d="M3.587 4.96265L3.92334 5.43278L4.47436 5.25825L4.13111 5.72338L4.46744 6.19352L3.91897 6.01083L3.57575 6.47593L3.58005 5.89792L3.03162 5.7152L3.58273 5.54066L3.587 4.96265Z" fill="#FFDA44"/>
<path d="M3.587 13.5242L3.92334 13.9943L4.47436 13.8198L4.13111 14.2849L4.46744 14.7551L3.91897 14.5724L3.57575 15.0375L3.58005 14.4594L3.03162 14.2767L3.58273 14.1022L3.587 13.5242Z" fill="#FFDA44"/>
<path d="M8.38421 9.24341L8.04786 9.71355L7.49683 9.53893L7.84007 10.0041L7.50372 10.4742L8.05221 10.2915L8.39545 10.7566L8.39117 10.1786L8.93958 9.99596L8.38848 9.82141L8.38421 9.24341Z" fill="#FFDA44"/>
</g>
<path d="M18.6207 9.99994C18.6207 5.04842 14.6067 1.03442 9.65521 1.03442C4.7037 1.03442 0.689697 5.04842 0.689697 9.99994C0.689697 14.9515 4.7037 18.9655 9.65521 18.9655C14.6067 18.9655 18.6207 14.9515 18.6207 9.99994Z" stroke="white" stroke-width="1.37931"/>
</g>
<defs>
<clipPath id="clip0_7379_14310">
<rect width="19.3103" height="20" fill="white"/>
</clipPath>
</defs>
</svg>
