<svg width="20" height="20" viewBox="0 0 20 20" fill="none" xmlns="http://www.w3.org/2000/svg">
<g clip-path="url(#clip0_7511_13270)">
<mask id="mask0_7511_13270" style="mask-type:luminance" maskUnits="userSpaceOnUse" x="1" y="1" width="17" height="18">
<path d="M17.931 9.99998C17.931 5.42935 14.2258 1.72412 9.65513 1.72412C5.0845 1.72412 1.37927 5.42935 1.37927 9.99998C1.37927 14.5706 5.0845 18.2758 9.65513 18.2758C14.2258 18.2758 17.931 14.5706 17.931 9.99998Z" fill="white"/>
</mask>
<g mask="url(#mask0_7511_13270)">
<path d="M9.65513 18.2758C14.2258 18.2758 17.931 14.5706 17.931 9.99998C17.931 5.42935 14.2258 1.72412 9.65513 1.72412C5.0845 1.72412 1.37927 5.42935 1.37927 9.99998C1.37927 14.5706 5.0845 18.2758 9.65513 18.2758Z" fill="#F0F0F0"/>
<path d="M3.80321 15.8518C0.571293 12.6198 0.571293 7.37991 3.80321 4.14795L8.57569 9.99991L3.80321 15.8518Z" fill="black"/>
<path d="M8.57592 10L2.47714 5.87866C2.28805 6.20734 2.1213 6.55039 1.97803 6.90546L5.06561 10L1.97812 13.0948C2.12128 13.4496 2.28785 13.7924 2.47681 14.1209L8.57592 10Z" fill="#FFDA44"/>
<path d="M17.8608 8.92055H8.57532L3.80301 4.14819C3.28874 4.66246 2.84194 5.24407 2.47676 5.87869L6.5901 9.99999L2.47644 14.1208C2.84161 14.7556 3.28861 15.3374 3.80301 15.8518L8.57532 11.0794H17.8608C17.9068 10.7261 17.9308 10.3659 17.9308 9.99999C17.9308 9.63413 17.9068 9.27392 17.8608 8.92055Z" fill="#6DA544"/>
<path d="M4.61682 16.565C6.01237 17.6377 7.75928 18.2758 9.65548 18.2758C13.4791 18.2758 16.6966 15.6825 17.6462 12.1589H9.02293L4.61682 16.565Z" fill="#0052B4"/>
<path d="M17.6462 7.84102C16.6966 4.31747 13.4791 1.72412 9.65548 1.72412C7.75928 1.72412 6.01237 2.3623 4.61682 3.435L9.02286 7.84102H17.6462Z" fill="#D80027"/>
</g>
<path d="M18.6206 9.99994C18.6206 5.04842 14.6066 1.03442 9.65509 1.03442C4.70357 1.03442 0.689575 5.04842 0.689575 9.99994C0.689575 14.9515 4.70357 18.9655 9.65509 18.9655C14.6066 18.9655 18.6206 14.9515 18.6206 9.99994Z" stroke="white" stroke-width="1.37931"/>
</g>
<defs>
<clipPath id="clip0_7511_13270">
<rect width="19.3103" height="20" fill="white"/>
</clipPath>
</defs>
</svg>
