<svg width="20" height="20" viewBox="0 0 20 20" fill="none" xmlns="http://www.w3.org/2000/svg">
<g clip-path="url(#clip0_7379_14247)">
<mask id="mask0_7379_14247" style="mask-type:luminance" maskUnits="userSpaceOnUse" x="1" y="1" width="17" height="18">
<path d="M17.9312 9.99998C17.9312 5.42935 14.226 1.72412 9.65538 1.72412C5.08475 1.72412 1.37952 5.42935 1.37952 9.99998C1.37952 14.5706 5.08475 18.2758 9.65538 18.2758C14.226 18.2758 17.9312 14.5706 17.9312 9.99998Z" fill="white"/>
</mask>
<g mask="url(#mask0_7379_14247)">
<path d="M9.65538 18.2758C14.226 18.2758 17.9312 14.5706 17.9312 9.99998C17.9312 5.42935 14.226 1.72412 9.65538 1.72412C5.08474 1.72412 1.37952 5.42935 1.37952 9.99998C1.37952 14.5706 5.08474 18.2758 9.65538 18.2758Z" fill="#F0F0F0"/>
<path d="M12.534 9.99989C12.534 10.7195 11.2452 12.5186 9.65543 12.5186C8.06563 12.5186 6.77686 10.7195 6.77686 9.99989C6.77686 8.4101 8.06563 7.12134 9.65543 7.12134C11.2452 7.12134 12.534 8.4101 12.534 9.99989Z" fill="#D80027"/>
<path d="M12.534 10C12.534 11.5898 11.2452 12.8786 9.65543 12.8786C8.06563 12.8786 6.77686 11.5898 6.77686 10" fill="#0052B4"/>
<path d="M12.7063 12.5444L13.4695 11.7812L13.9783 12.29L13.2151 13.0532L12.7063 12.5444Z" fill="black"/>
<path d="M11.4341 13.8164L12.1973 13.0532L12.706 13.5621L11.9428 14.3252L11.4341 13.8164Z" fill="black"/>
<path d="M14.2324 14.0708L14.9956 13.3076L15.5044 13.8164L14.7412 14.5795L14.2324 14.0708Z" fill="black"/>
<path d="M12.9602 15.343L13.7234 14.5798L14.2321 15.0886L13.469 15.8518L12.9602 15.343Z" fill="black"/>
<path d="M13.4694 13.3076L14.2325 12.5444L14.7413 13.0533L13.9781 13.8164L13.4694 13.3076Z" fill="black"/>
<path d="M12.1978 14.5796L12.9609 13.8164L13.4698 14.3252L12.7066 15.0883L12.1978 14.5796Z" fill="black"/>
<path d="M14.2358 7.45699L12.2007 5.42187L12.7094 4.91309L14.7445 6.94823L14.2358 7.45699Z" fill="black"/>
<path d="M12.2006 6.94845L11.4374 6.18528L11.9461 5.67651L12.7093 6.43968L12.2006 6.94845Z" fill="black"/>
<path d="M13.4729 8.22066L12.7097 7.45749L13.2185 6.94873L13.9816 7.7119L13.4729 8.22066Z" fill="black"/>
<path d="M13.7266 5.42186L12.9634 4.65869L13.4722 4.1499L14.2354 4.91307L13.7266 5.42186Z" fill="black"/>
<path d="M14.9994 6.69408L14.2362 5.93091L14.745 5.42212L15.5082 6.18529L14.9994 6.69408Z" fill="black"/>
<path d="M4.31324 13.3062L6.34837 15.3413L5.83957 15.8501L3.80444 13.815L4.31324 13.3062Z" fill="black"/>
<path d="M6.34849 13.8145L7.11167 14.5776L6.60289 15.0864L5.83972 14.3232L6.34849 13.8145Z" fill="black"/>
<path d="M5.07629 12.5427L5.83946 13.3059L5.33068 13.8147L4.5675 13.0516L5.07629 12.5427Z" fill="black"/>
<path d="M5.83936 11.7795L7.87446 13.8146L7.3657 14.3235L5.33057 12.2883L5.83936 11.7795Z" fill="black"/>
<path d="M6.34861 4.65699L4.31348 6.69212L3.80469 6.18333L5.83982 4.14819L6.34861 4.65699Z" fill="black"/>
<path d="M7.11165 5.42016L5.07654 7.45531L4.56775 6.94649L6.60288 4.91138L7.11165 5.42016Z" fill="black"/>
<path d="M7.87529 6.18381L5.84019 8.21897L5.33142 7.71021L7.36653 5.67505L7.87529 6.18381Z" fill="black"/>
</g>
<path d="M18.6207 9.99994C18.6207 5.04842 14.6067 1.03442 9.65521 1.03442C4.7037 1.03442 0.689697 5.04842 0.689697 9.99994C0.689697 14.9515 4.7037 18.9655 9.65521 18.9655C14.6067 18.9655 18.6207 14.9515 18.6207 9.99994Z" stroke="white" stroke-width="1.37931"/>
</g>
<defs>
<clipPath id="clip0_7379_14247">
<rect width="19.3103" height="20" fill="white"/>
</clipPath>
</defs>
</svg>
